<mxfile host="app.diagrams.net" modified="2023-12-28T10:18:54.358Z" agent="Mozilla/5.0 (Windows NT 10.0; Win64; x64) AppleWebKit/537.36 (KHTML, like Gecko) Chrome/120.0.0.0 Safari/537.36" etag="JCYFDdDpOuF21xzNLaTy" version="22.1.15" type="github">
  <diagram name="第 1 页" id="P0yK9BxI82mzCVYBc7bW">
    <mxGraphModel dx="2247" dy="758" grid="1" gridSize="10" guides="1" tooltips="1" connect="1" arrows="1" fold="1" page="1" pageScale="1" pageWidth="827" pageHeight="1169" math="0" shadow="0">
      <root>
        <mxCell id="0" />
        <mxCell id="1" parent="0" />
        <mxCell id="cJXVrUPONO5RYP6DDQ6k-11" value="" style="rounded=0;whiteSpace=wrap;html=1;" vertex="1" parent="1">
          <mxGeometry x="-40" y="520" width="720" height="400" as="geometry" />
        </mxCell>
        <mxCell id="cJXVrUPONO5RYP6DDQ6k-1" value="数据汇聚" style="rounded=0;whiteSpace=wrap;html=1;fillColor=#dae8fc;strokeColor=#6c8ebf;gradientColor=#7ea6e0;" vertex="1" parent="1">
          <mxGeometry x="130" y="780" width="100" height="45" as="geometry" />
        </mxCell>
        <mxCell id="cJXVrUPONO5RYP6DDQ6k-2" value="数据开放" style="rounded=0;whiteSpace=wrap;html=1;" vertex="1" parent="1">
          <mxGeometry x="320" y="140" width="120" height="60" as="geometry" />
        </mxCell>
        <mxCell id="cJXVrUPONO5RYP6DDQ6k-3" value="数据存储" style="rounded=0;whiteSpace=wrap;html=1;" vertex="1" parent="1">
          <mxGeometry x="180" y="150" width="100" height="60" as="geometry" />
        </mxCell>
        <mxCell id="cJXVrUPONO5RYP6DDQ6k-4" value="数据治理" style="rounded=0;whiteSpace=wrap;html=1;" vertex="1" parent="1">
          <mxGeometry x="120" y="260" width="120" height="60" as="geometry" />
        </mxCell>
        <mxCell id="cJXVrUPONO5RYP6DDQ6k-5" value="数据备份" style="rounded=0;whiteSpace=wrap;html=1;" vertex="1" parent="1">
          <mxGeometry x="730" y="585" width="120" height="60" as="geometry" />
        </mxCell>
        <mxCell id="cJXVrUPONO5RYP6DDQ6k-6" value="数据存储" style="rounded=0;whiteSpace=wrap;html=1;fillColor=#fff2cc;strokeColor=#d6b656;gradientColor=#ffd966;" vertex="1" parent="1">
          <mxGeometry x="470" y="575" width="100" height="255" as="geometry" />
        </mxCell>
        <mxCell id="cJXVrUPONO5RYP6DDQ6k-7" value="数据治理" style="rounded=0;whiteSpace=wrap;html=1;fillColor=#dae8fc;strokeColor=#6c8ebf;gradientColor=#7ea6e0;" vertex="1" parent="1">
          <mxGeometry x="290" y="780" width="100" height="45" as="geometry" />
        </mxCell>
        <mxCell id="cJXVrUPONO5RYP6DDQ6k-8" value="主题库" style="rounded=0;whiteSpace=wrap;html=1;fillColor=#dae8fc;strokeColor=#6c8ebf;gradientColor=#7ea6e0;" vertex="1" parent="1">
          <mxGeometry x="130" y="680" width="100" height="45" as="geometry" />
        </mxCell>
        <mxCell id="cJXVrUPONO5RYP6DDQ6k-9" value="数据共享" style="rounded=0;whiteSpace=wrap;html=1;fillColor=#dae8fc;strokeColor=#6c8ebf;gradientColor=#7ea6e0;" vertex="1" parent="1">
          <mxGeometry x="130" y="562" width="100" height="45" as="geometry" />
        </mxCell>
        <mxCell id="cJXVrUPONO5RYP6DDQ6k-12" value="专题库" style="rounded=0;whiteSpace=wrap;html=1;fillColor=#dae8fc;strokeColor=#6c8ebf;gradientColor=#7ea6e0;" vertex="1" parent="1">
          <mxGeometry x="290" y="680" width="100" height="45" as="geometry" />
        </mxCell>
      </root>
    </mxGraphModel>
  </diagram>
</mxfile>
